<?xml version="1.0" standalone="no"?>
<!DOCTYPE svg PUBLIC "-//W3C//DTD SVG 20010904//EN"
 "http://www.w3.org/TR/2001/REC-SVG-20010904/DTD/svg10.dtd">
<svg version="1.0" xmlns="http://www.w3.org/2000/svg"
 width="1000.000000pt" height="1000.000000pt" viewBox="0 0 1000.000000 1000.000000"
 preserveAspectRatio="xMidYMid meet">
<metadata>
Created by potrace 1.11, written by Peter Selinger 2001-2013
</metadata>
<g transform="translate(0.000000,1000.000000) scale(0.100000,-0.100000)"
fill="#000000" stroke="none">
<path d="M6460 6081 l0 -3369 -55 -110 c-184 -368 -468 -560 -890 -602 -192
-19 -428 3 -597 56 -378 119 -547 385 -623 979 -33 261 -35 426 -35 3138 l0
2717 -920 0 -920 0 0 -2612 c0 -1696 4 -2671 10 -2778 40 -634 185 -1115 450
-1492 79 -112 246 -288 355 -373 310 -243 707 -388 1198 -440 194 -20 599 -20
795 0 460 48 860 189 1154 407 l78 58 2 -248 3 -247 1248 -3 1247 -2 0 4145 0
4145 -1250 0 -1250 0 0 -3369z"/>
</g>
</svg>
